<svg xmlns="http://www.w3.org/2000/svg" id="Camada_1" viewBox="0 0 1011.4 379.79"><path d="m990.34,243.2c-19.8-.08-54.61,1.05-99.9,2.68-3.03-1.76-5.85-3.93-8.05-6.4-65.88-73.73-133.32-145.82-213.26-204.91-1.3-.96-2.3-2.35-3.57-3.68,1.26-1.86,2.21-3.29,3.19-4.72,6.25-9.12,6.03-16.68-.65-21.51-6.68-4.83-14.23-2.64-20.64,6.13-8.08,11.05-16.19,22.07-24.08,33.26-10.65,15.09-11,30.73-2.18,46.83,1.33,2.44,2.88,5.32,2.75,7.91-.82,15.33-2.11,30.63-3.37,47.69-12.66-10.61-24.09-20.2-35.94-30.14,5.91-7.23,11.52-13.51,16.47-20.27,9.01-12.32,8.71-28.9-.27-40.76-9.14-12.06-24.91-17.01-39.05-11.81-12.75,4.69-20.42,15.26-27.34,25.99-3.52,5.46-1.1,11.51,4.28,15.31,5.35,3.78,11.15,3.57,16.07-.82,3.89-3.47,7.2-7.61,10.65-11.55,3.64-4.15,7.87-6.81,12.78-2.69,5.22,4.38,3.32,9.17-.49,13.7-24.38,28.98-48.72,58-73.05,87.02-3.79,4.52-8.18,7.34-13.35,2.66-4.65-4.2-2.92-8.82.64-13.1,8.01-9.63,16.03-19.25,23.85-29.03,5.58-6.98,5.3-14.54-.35-19.5-6.12-5.38-13.49-4.5-19.78,2.86-8.32,9.74-16.44,19.67-24.48,29.65-13.18,16.36-11.59,37.23,3.64,49.84,15.17,12.55,35.73,10.03,49.61-6.11,4.51-5.24,8.95-10.54,13.88-16.36,26.14,21.94,51.69,43.38,76.53,64.22-3.14,6.76-6.37,12.99-9.21,19.21-11.93.25-23.96.48-36.06.68-11.77-15.81-29.43-21.84-48.84-20.52-11.02.75-22.14.26-33.21.04-3.4-.07-7.04-.51-10.14-1.81-23.06-9.7-46.06-19.53-68.97-29.58-17.63-7.73-28.85-21.2-33.96-39.73-1-3.64-1.51-7.43-2.62-11.04-2.26-7.32-8.59-11.4-15.21-10.1-7.17,1.41-11.71,7.88-10.34,15.77,5.44,31.24,21.06,55.11,50.55,68.71,4.57,2.11,9.18,4.15,13.77,6.23l-.63,2.64c-26.59-2.1-53.21-3.99-79.78-6.39-20.37-1.84-20.34-2.13-22.54-22.72-.22-2.03-.55-4.04-.81-6.06-3.42-26.56-7.41-53.07-10.07-79.71-2.2-22.02,10.53-34.04,32.84-32.25.99,3.71,1.63,7.77,3.15,11.46,2.61,6.34,7.63,9.8,14.55,8.41,7.19-1.45,11.51-6.56,10.56-13.82-.89-6.82-2.91-13.72-5.74-20-3.39-7.52-9.77-12.95-18.29-13.08-27.68-.41-50.7,5.42-61.35,38.93-.33,1.03-.98,1.97-1.92,3.81-15.04-10.47-32.07-10.14-48.91-10.66-17.47-.53-34.96-.61-52.41-1.54-3.71-.2-7.96-2.47-10.76-5.08-6.32-5.89-13.8-6.04-20.21-.28-2.59,2.33-6.51,3.85-10.02,4.33-4.85.67-9.89-.22-14.83-.03-13.13.51-23,9.79-24.56,22.82-.27,2.26-.5,4.53-.74,6.68-17.26,3.04-21.63,5.96-21.67,14.26-.03,8.19,3.88,10.8,21.62,14.14.19,1.22.47,2.59.6,3.98,1.62,17.09,11.52,25.99,28.82,25.87,3.5-.02,7.05.27,10.47-.26,6.13-.96,9.86,1.46,12.19,7.85-3.35,1.11-6.11,1.98-8.84,2.94-24.53,8.54-43.85,26.17-54.83,48.33-24.28-2.15-42.76-3.91-54.07-4.85-9.02-.75-16.77,6.07-16.77,14.77v65c0,7.62,6,14,13.89,14.75,12.89,1.23,34.33,3.17,62.39,5.34,12.12,18.75,30.55,33.34,52.46,40,37.64,11.45,77.93-.61,102.39-30.6,8.4.37,16.95.73,25.64,1.06,3.72,6.3,9.71,9.02,20.39,10.07,15.94,1.58,31.93,3.49,47.91,3.6,79.83.5,159.66.51,239.5.47,4.15,0,8.33-1.95,12.45-3.13,4.27-1.22,8.42-3.25,12.76-3.77,5.46-.66,11.09.24,16.58-.26,6.86-.62,11.86,1.69,17.14,6.24,28.86,24.85,71.98,28.59,102.82,5.96,14.26-10.47,28-13.16,44.13-12.13,4.06.26,8.23-.44,12.21.2,2.76.45,6.04,1.79,7.77,3.84,5.92,7.01,13.05,9.01,21.86,7.61,25.58-4.09,51.23-7.74,76.79-11.94,16.85-2.76,34.18-3.68,49.11-13.8.78-.53,1.52-1.07,2.25-1.63,19.05-.57,34.23-.99,44.49-1.21,8.39-.18,15.08-6.76,15.08-14.82v-60.74c0-8.16-6.86-14.79-15.36-14.82ZM134.43,152.04h-18.95v-33.86h18.95v33.86ZM649.5,53.55c73.55,53.15,137.02,116.94,196.42,186.23-8.8,2.17-15.13-.14-21.21-5.88-9.94-9.4-20.55-18.09-31.04-26.89-7.9-6.63-15.42-6.46-20.67.08-4.91,6.11-3.61,13.44,3.64,19.85,5.45,4.82,11,9.52,17.21,14.88-3.37,2.43-5.95,5.04-7.79,7.81-7.58.26-15.31.52-23.14.79-13.12-25.79-38.57-43.8-68.05-47.3-4.56-.54-9.47-2.73-13.12-5.56-10.82-8.37-21.2-17.32-31.48-26.36-2.12-1.86-4.41-5.15-4.3-7.67.65-14.74,2-29.44,3.23-45.75,3.62,2.93,6.27,4.97,8.8,7.14,22.32,19.18,44.49,38.52,67.04,57.42,3.5,2.94,8.85,5.75,12.96,5.28,3.94-.45,8.63-4.55,10.77-8.31,3.34-5.88-.22-11.15-4.96-15.24-16.77-14.45-33.57-28.87-50.36-43.3-14.14-12.15-28.31-24.27-42.41-36.46-12.9-11.16-13.19-17.34-1.52-30.75Zm-94.28,97.63c4.32-5.16,8.02-9.58,12.39-14.81,28.54,23.94,56.73,47.59,85.44,71.67-6.45,3.53-12.01,6.58-18.16,9.95-26.21-21.98-52.49-44.02-79.67-66.81Zm127.85,77.73c20.18.03,37.86,8.73,49.35,22.5-30.85.97-63.24,1.9-96.6,2.69,10.9-15.13,28.29-25.22,47.25-25.19Zm-406.77-56.02c2.65,16.03,4.63,32.17,6.91,48.86-16.2,6.95-19.09,11.38-17.68,29.58-3.4-.17-6.77-.35-10.13-.52-1.04-1.14-1.94-2.67-2.68-4.76-5.54-15.61-15.14-28.75-28.11-39.13-4.07-3.25-4.86-6.22-3.13-11.15,7.11-20.24,28.66-33.52,48.71-29.05,2.45.55,5.71,3.77,6.11,6.17Zm-114.3-53.48c2.26-.15,4.48-.48,6.7-.41,23.27.67,46.56,1.18,69.82,2.19,13.12.57,22.04,6.13,28.14,15.58-12.99,4.14-25.76,8.42-38.68,12.18-3.81,1.11-8.06,1-12.1,1.02-17.72.1-35.45.04-53.87.04v-30.61Zm4.11,58.48c10.95-.51,21.93-.21,34.18-.21-1.71,4.28-3.28,8.21-4.45,11.14-12.89-1.96-24.55-3.74-38.52-5.87,3.61-2.17,6.14-4.93,8.79-5.05Zm-3.15,32.75c27.38.02,50.99,15.65,62.51,38.49-45.89-2.73-86.6-5.83-119.96-8.62,12.73-18.05,33.76-29.88,57.45-29.86Zm.35,140.18c-16.62.07-31.85-5.57-43.89-15.06,23.9,1.65,50.85,3.33,80.15,4.86-10.53,6.43-22.93,10.15-36.26,10.2Zm521.55,0c-10.81-.03-20.92-2.84-29.67-7.74,21.02-.5,41.89-1.03,62.36-1.57-9.48,5.92-20.68,9.34-32.69,9.31Z"></path></svg>