<?xml version="1.0" standalone="no"?>
<!DOCTYPE svg PUBLIC "-//W3C//DTD SVG 20010904//EN"
 "http://www.w3.org/TR/2001/REC-SVG-20010904/DTD/svg10.dtd">
<svg version="1.0" xmlns="http://www.w3.org/2000/svg"
 width="240.534116pt" height="317.829926pt" viewBox="0 0 240.534116 317.829926"
 preserveAspectRatio="xMidYMid meet">
<metadata>
Created by potrace 1.12, written by Peter Selinger 2001-2015
</metadata>
<g transform="translate(-59.723581,338.792016) scale(0.100000,-0.100000)"
fill="#000000" stroke="none">
<path d="M1090 3375 c-173 -39 -340 -173 -418 -336 -57 -119 -75 -201 -75
-339 0 -210 56 -415 180 -659 42 -84 77 -167 83 -200 6 -31 15 -222 20 -426
11 -443 26 -570 87 -755 92 -273 285 -479 418 -446 34 9 93 62 114 105 46 90
67 207 81 455 16 284 54 454 125 562 84 127 176 82 246 -121 38 -111 57 -232
69 -441 14 -248 37 -371 85 -465 17 -32 76 -85 105 -94 131 -42 330 168 423
445 61 185 76 312 87 755 5 204 14 395 20 426 6 33 41 116 83 200 124 243 179
448 180 659 0 138 -18 220 -75 339 -32 68 -57 101 -122 166 -133 133 -286 193
-464 181 -107 -7 -206 -35 -375 -107 -75 -33 -151 -59 -167 -59 -16 0 -93 27
-170 60 -77 33 -173 69 -213 80 -96 27 -243 34 -327 15z m256 -71 c79 -16 151
-42 315 -113 129 -55 151 -54 308 13 166 71 238 95 332 109 175 25 327 -28
459 -161 126 -126 173 -251 173 -457 0 -202 -51 -381 -180 -640 -51 -101 -74
-159 -82 -210 -7 -38 -17 -236 -21 -440 -9 -391 -19 -490 -65 -665 -61 -230
-229 -460 -336 -460 -56 0 -107 88 -133 228 -9 46 -20 165 -26 265 -20 359
-75 555 -183 654 -75 69 -149 67 -222 -5 -102 -101 -155 -301 -175 -649 -6
-100 -17 -219 -26 -265 -26 -140 -77 -228 -133 -228 -107 0 -275 229 -336 460
-46 175 -56 274 -65 665 -4 204 -14 402 -20 440 -9 51 -31 107 -82 209 -129
258 -181 439 -181 641 0 206 47 331 173 457 145 146 305 194 506 152z"/>
</g>
</svg>
